<svg width="100" height="86" viewBox="0 0 100 86" fill="none" xmlns="http://www.w3.org/2000/svg">
<path fill-rule="evenodd" clip-rule="evenodd" d="M35.1797 52.5201L35.0997 53.1601L35.0097 53.9401C35.0097 54.1501 35.0097 54.3501 34.9497 54.5201L34.2097 54.6701C33.9597 54.6701 33.7597 54.7601 33.5997 54.8001L34.1497 54.0702L34.5497 53.4902C34.8028 53.1128 35.0236 52.7147 35.2097 52.3001V52.5201H35.1797ZM36.3297 56.5201C36.3204 56.4471 36.3204 56.3732 36.3297 56.3001C36.4979 55.8977 36.8073 55.5706 37.1997 55.3801V55.4401L36.9097 55.8801C36.8542 55.9666 36.7941 56.0501 36.7297 56.1301C36.6176 56.2803 36.4826 56.4119 36.3297 56.5201ZM36.3297 53.6701C36.3297 54.1201 36.0597 54.4601 35.4397 54.6701C35.4397 54.8601 35.4397 55.0301 35.4397 55.1801C35.4397 55.3301 35.4397 55.5001 35.4397 55.6401C35.473 55.8352 35.5266 56.0262 35.5997 56.2102C35.6435 56.3242 35.7079 56.4293 35.7897 56.5201C35.7752 56.4408 35.7752 56.3595 35.7897 56.2801C35.9697 55.5401 36.7897 54.9901 38.2197 54.6401C38.4008 54.5958 38.5845 54.5624 38.7697 54.5401C38.9056 54.5199 39.0438 54.5199 39.1797 54.5401C39.3197 54.5401 39.3897 54.6201 39.4097 54.6901C39.4138 54.7133 39.4138 54.737 39.4097 54.7601H39.3297C39.2801 54.7689 39.2293 54.7689 39.1797 54.7601C38.8836 54.764 38.59 54.8146 38.3097 54.9101C37.9652 54.9967 37.6302 55.1173 37.3097 55.2701C37.3204 55.2992 37.3204 55.3311 37.3097 55.3601C37.3203 55.3994 37.3203 55.4408 37.3097 55.4801C37.2225 55.6393 37.1257 55.7929 37.0197 55.9401C36.9147 56.0804 36.8012 56.214 36.6797 56.3401C36.5448 56.4905 36.39 56.6217 36.2197 56.7301C36.2505 56.7875 36.2932 56.8377 36.345 56.8774C36.3967 56.917 36.4562 56.9453 36.5197 56.9602C36.8213 57.0389 37.1381 57.0389 37.4397 56.9602C38.4034 56.7691 39.276 56.2624 39.9197 55.5201C40.4434 54.821 40.7868 54.0035 40.9197 53.1401C40.811 53.1532 40.7039 53.1766 40.5997 53.2102L40.3997 53.2701C40.0597 53.3801 39.6797 53.5201 39.2497 53.6901C38.9697 53.8057 38.696 53.9358 38.4297 54.0801C38.3796 54.1128 38.3259 54.1396 38.2697 54.1601C38.1897 54.1601 38.1597 54.1601 38.1397 54.1601C38.1197 54.1601 38.1397 54.0001 38.1897 53.9101C38.2417 53.8016 38.3128 53.7034 38.3997 53.6201C38.8168 53.3366 39.2915 53.1487 39.7897 53.0702L40.0997 52.9902L40.4197 52.9201H40.6097H40.8497H41.0197C41.0197 52.8601 41.0197 52.7701 41.0197 52.6401L41.0997 51.9501C41.0997 51.6801 41.1697 51.4401 41.2097 51.2501C41.2328 51.122 41.2629 50.9951 41.2997 50.8701H41.0097H40.7197H40.6197H40.4397C40.1034 50.8983 39.7694 50.9484 39.4397 51.0201C39.102 51.0806 38.7681 51.1607 38.4397 51.2601L38.2597 51.3301C37.7912 51.4867 37.3443 51.7017 36.9297 51.9701C36.6062 52.1708 36.3216 52.4283 36.0897 52.7301C36.0256 52.8015 35.9773 52.8856 35.948 52.977C35.9187 53.0683 35.909 53.1648 35.9197 53.2601C35.9197 53.3201 35.9797 53.4901 36.3397 53.3901C36.4735 53.3556 36.6015 53.3017 36.7197 53.2301H36.8197C36.8347 53.2237 36.8509 53.2205 36.8673 53.2206C36.8836 53.2206 36.8998 53.2241 36.9148 53.2306C36.9298 53.2372 36.9433 53.2467 36.9544 53.2587C36.9656 53.2706 36.9742 53.2847 36.9797 53.3001C36.9797 53.4101 36.8697 53.4901 36.8297 53.5101C36.6718 53.6113 36.5 53.6888 36.3197 53.7402H36.0597L36.3297 53.6701ZM35.5097 52.7501C35.5097 52.2901 35.5097 51.9002 35.5797 51.6002C35.5959 51.548 35.5959 51.4923 35.5797 51.4401C35.6538 51.2315 35.691 51.0115 35.6897 50.7901C36.7797 50.6801 37.8797 50.5901 38.9797 50.5501H39.6297C39.2897 50.5501 38.9897 50.6601 38.6997 50.7301L38.5097 50.7801C37.969 50.9158 37.4504 51.128 36.9697 51.4101C36.4997 51.688 36.1076 52.0802 35.8297 52.5501C35.7416 52.6818 35.6945 52.8367 35.6945 52.9951C35.6945 53.1536 35.7416 53.3085 35.8297 53.4401C35.9018 53.5368 36.0037 53.6071 36.1197 53.6401C36.1197 53.9401 35.9397 54.1802 35.4997 54.3502L35.5697 52.7601L35.5097 52.7501ZM32.6297 55.4701L32.4997 55.6501L32.2297 56.0001L32.1697 56.0901C31.8197 56.5401 31.5297 56.9101 31.2897 57.2001C31.0497 57.4901 30.8397 57.6901 30.6697 57.8601C30.5824 57.8199 30.5055 57.7603 30.4448 57.6857C30.3842 57.6112 30.3414 57.5238 30.3197 57.4301C30.3197 57.1701 30.4197 56.8801 30.7997 56.4301C31.3433 55.9423 31.9792 55.5683 32.6697 55.3301L32.5797 55.4602L32.6297 55.4701ZM47.7197 63.7402C51.2497 60.4002 53.1797 56.6701 53.4697 52.6501C53.4771 50.4075 52.7305 48.2274 51.3497 46.4601C49.8897 44.6801 48.423 42.8435 46.9497 40.9501C45.6126 39.3238 44.7786 37.343 44.5497 35.2501C44.4097 31.3401 46.8897 28.5201 52.1097 26.6401C53.8332 26.0093 55.6455 25.6549 57.4797 25.5901C60.7397 25.4801 61.3497 26.0801 61.4797 26.3501C61.5349 26.4553 61.5656 26.5715 61.5697 26.6901C61.5697 27.1301 61.4397 27.7501 59.9797 28.0501C59.7789 28.0697 59.5851 28.1337 59.4121 28.2375C59.2391 28.3413 59.0914 28.4822 58.9797 28.6501C58.9244 28.7674 58.8958 28.8955 58.8958 29.0251C58.8958 29.1548 58.9244 29.2829 58.9797 29.4001C59.1697 29.8201 59.6897 30.4601 60.9797 30.0901C61.8156 29.8133 62.5804 29.3558 63.2197 28.7501C63.5655 28.4771 63.8469 28.1313 64.0439 27.7373C64.2409 27.3432 64.3487 26.9106 64.3597 26.4701C64.3097 25.0901 63.2097 24.1601 61.0997 23.6901C59.7164 23.3547 58.2877 23.2467 56.8697 23.3701C53.9679 23.5569 51.131 24.3112 48.5197 25.5901C46.9379 26.3134 45.5259 27.361 44.3751 28.6652C43.2243 29.9693 42.3605 31.5007 41.8397 33.1601C41.5323 34.1295 41.3903 35.1437 41.4197 36.1601C41.6187 38.5268 42.4512 40.7962 43.8297 42.7301L46.4297 46.2501L47.9497 48.2501C49.3297 50.1701 50.0597 51.7401 50.0897 52.9101C50.1897 55.9101 48.9297 58.7501 46.3197 61.5001C43.0707 64.6719 39.0899 66.9937 34.7297 68.2601C32.1387 69.0824 29.4467 69.5434 26.7297 69.6301C23.7404 69.7889 20.748 69.3817 17.9097 68.4301C15.4397 67.5401 13.8597 66.2701 13.2297 64.6401C13.0451 64.1952 12.9402 63.7214 12.9197 63.2402C12.8197 60.0402 15.6497 57.1401 21.3497 54.6201C25.7582 52.6335 30.4466 51.3383 35.2497 50.7801C35.0746 51.4878 34.7876 52.163 34.3997 52.7801C34.1697 53.1901 33.9397 53.5701 33.7297 53.9101C33.5197 54.2501 33.2997 54.5502 33.0897 54.8502H32.9497H32.8697L32.6797 54.9001H32.5397L32.1297 55.0301L31.7797 55.1501H31.6497C30.9341 55.4459 30.3485 55.9889 29.9997 56.6801C29.8586 56.9069 29.7987 57.1749 29.8297 57.4401C29.8595 57.5962 29.9325 57.7407 30.0403 57.8574C30.1481 57.974 30.2865 58.0581 30.4397 58.1002C30.05 58.475 29.5663 58.7376 29.0397 58.8601C28.8597 58.8601 28.8497 58.8601 28.8497 58.8001C28.8315 58.7279 28.8315 58.6524 28.8497 58.5801V58.4001L28.7097 58.5001C28.6751 58.5224 28.6456 58.5517 28.6232 58.5862C28.6008 58.6206 28.5859 58.6595 28.5797 58.7001C28.5585 58.7787 28.5585 58.8616 28.5797 58.9401C28.5797 59.0601 28.6797 59.1801 28.9897 59.1401C29.641 58.9898 30.2391 58.6648 30.7197 58.2001C31.0073 58.2709 31.3045 58.2945 31.5997 58.2701C31.6307 58.2734 31.662 58.2697 31.6915 58.2593C31.7209 58.2489 31.7476 58.2321 31.7697 58.2102C31.7754 58.1838 31.7754 58.1565 31.7697 58.1301C31.7697 58.0501 31.6597 58.0501 31.6197 58.0501C31.4667 58.0655 31.3126 58.0655 31.1597 58.0501C31.0831 58.055 31.0063 58.055 30.9297 58.0501C31.0997 57.8901 31.2897 57.7002 31.5097 57.4602C31.7297 57.2202 32.9097 55.6801 33.0297 55.5201L33.2297 55.2601L34.2297 55.0301L34.8897 54.9001C34.859 55.2328 34.859 55.5675 34.8897 55.9001C34.9144 56.0332 34.9512 56.1638 34.9997 56.2901C35.1997 56.8101 35.4997 57.0501 35.8897 57.0001C36.0045 57.1939 36.1915 57.3342 36.4097 57.3901C36.8427 57.5254 37.3067 57.5254 37.7397 57.3901C38.7336 57.1691 39.6328 56.6408 40.3097 55.8801C40.9971 55.104 41.4451 54.1454 41.5997 53.1201H41.7497H42.0897C42.2681 53.1216 42.4461 53.1015 42.6197 53.0601C42.6197 53.0601 42.7597 53.0601 42.7597 52.9501C42.7597 52.8401 42.6597 52.8501 42.5897 52.8301C42.5134 52.8197 42.436 52.8197 42.3597 52.8301C42.2699 52.8205 42.1794 52.8205 42.0897 52.8301H41.7797H41.6397L42.0297 50.8301H42.7597C43.0316 50.8288 43.3028 50.802 43.5697 50.7501C43.8825 50.6602 44.1634 50.4834 44.3797 50.2402C44.4686 50.151 44.5398 50.0458 44.5897 49.9301C44.6466 49.8241 44.6764 49.7055 44.6764 49.5851C44.6764 49.4648 44.6466 49.3462 44.5897 49.2401C44.3797 48.8401 43.8197 48.6001 42.7097 48.4301C39.565 48.0493 36.3936 47.9355 33.2297 48.0901C28.027 48.1401 22.873 49.0978 17.9997 50.9201C11.3397 53.6101 7.99969 57.2601 8.18969 61.7501C8.23645 62.8191 8.4912 63.8687 8.93969 64.8401C10.0297 67.2701 12.2597 69.1901 15.5697 70.5301C19.0514 71.8372 22.766 72.4092 26.4797 72.2102C29.4792 72.1058 32.4517 71.6048 35.3197 70.7201C39.9403 69.4047 44.1898 67.0282 47.7297 63.7801L47.7197 63.7402ZM71.2797 61.8401C70.9497 62.2301 70.2197 63.1701 68.9097 64.8901C67.3397 66.9601 65.9097 68.8901 64.7197 70.7301C63.7804 70.34 62.8187 70.006 61.8397 69.7301C65.8397 65.5601 68.4897 63.0901 69.6897 62.3901C70.171 62.0758 70.7187 61.8772 71.2897 61.8101L71.2797 61.8401ZM54.7197 74.2001C52.9934 75.9142 51.1342 77.4891 49.1597 78.9101C47.2275 80.3044 45.074 81.3625 42.7897 82.0401C41.6552 82.3893 40.4766 82.5745 39.2897 82.5901C36.8297 82.5901 35.4697 81.7101 35.1597 79.9001C35.1597 79.7401 35.1597 79.5402 35.1597 79.3502C35.1597 77.5502 36.5697 75.7701 39.3597 74.0601C42.0197 72.4678 44.9475 71.3733 47.9997 70.8301C49.9527 70.4706 51.9339 70.2865 53.9197 70.2801C55.4278 70.2874 56.9328 70.4178 58.4197 70.6701L54.7397 74.2001H54.7197ZM71.2997 60.4001C72.7597 60.4001 72.9097 61.3001 72.9097 61.6801C72.9075 62.006 72.7986 62.3221 72.5997 62.5801C70.7997 65.2001 68.8797 68.3001 66.8697 71.7801C67.1934 71.9565 67.5012 72.1606 67.7897 72.3901C67.8963 72.4518 67.9893 72.5344 68.063 72.633C68.1367 72.7316 68.1897 72.8441 68.2187 72.9638C68.2477 73.0834 68.2521 73.2078 68.2316 73.3292C68.2112 73.4506 68.1663 73.5666 68.0997 73.6701C68.0381 73.7664 67.956 73.8477 67.8591 73.9082C67.7622 73.9688 67.6531 74.007 67.5397 74.0201C67.4281 74.0307 67.3155 74.0165 67.21 73.9785C67.1046 73.9404 67.0088 73.8795 66.9297 73.8001C66.6557 73.5838 66.3648 73.3898 66.0597 73.2201C65.3897 74.4501 64.7897 75.6101 64.2997 76.6101C62.9797 79.3101 62.2997 81.3101 62.2997 82.6101C62.2997 83.7201 62.8397 83.8801 63.4197 83.8801C63.8074 83.8779 64.1894 83.7865 64.5362 83.6131C64.8829 83.4397 65.1852 83.1889 65.4197 82.8801C65.6897 82.5401 65.9697 82.4201 66.2597 82.5101C66.3487 82.5272 66.432 82.5663 66.5019 82.624C66.5718 82.6817 66.6261 82.756 66.6597 82.8401C66.6992 82.9974 66.6969 83.1623 66.6531 83.3184C66.6092 83.4745 66.5253 83.6165 66.4097 83.7301C66.0441 84.1963 65.5796 84.5754 65.0497 84.8401C64.3847 85.2196 63.6351 85.4259 62.8697 85.4401C62.4089 85.4465 61.9521 85.3544 61.5297 85.1701C60.9055 84.9013 60.376 84.452 60.0089 83.8801C59.6419 83.3081 59.4541 82.6396 59.4697 81.9602C59.5437 80.5398 59.8829 79.1458 60.4697 77.8502C61.4133 75.887 62.51 74.0012 63.7497 72.2102C62.6971 71.8035 61.6179 71.4693 60.5197 71.2102L58.2697 73.7102C58.2697 73.7102 55.4997 76.7901 55.4897 76.7901C53.7122 78.7776 51.7538 80.5954 49.6397 82.2201C47.5426 83.8094 45.1333 84.9373 42.5697 85.5301C41.8757 85.6743 41.1685 85.7447 40.4597 85.7402C38.8345 85.7976 37.2281 85.3768 35.8397 84.5301C35.0728 84.04 34.4459 83.3597 34.02 82.5553C33.5942 81.7509 33.3839 80.8499 33.4097 79.9401C33.4097 77.2801 35.1197 74.8502 38.6097 72.7102C41.927 70.6968 45.6432 69.4308 49.4997 69.0001C50.948 68.8028 52.408 68.7025 53.8697 68.7001C55.8842 68.6993 57.8939 68.897 59.8697 69.2901C62.5528 66.5634 65.3837 63.9862 68.3497 61.5702C69.2121 60.8892 70.255 60.4755 71.3497 60.3801L71.2997 60.4001ZM78.9497 46.3001C80.1497 44.0901 80.7797 43.7101 80.9997 43.6501C80.7631 44.5329 80.3702 45.366 79.8397 46.1101C79.2326 47.0592 78.5646 47.9678 77.8397 48.8301C78.1381 47.9648 78.4921 47.1197 78.8997 46.3001H78.9497ZM90.1497 37.3001C90.5697 37.3001 90.8997 37.6901 91.1497 38.1501C91.8685 39.27 92.2343 40.5799 92.1997 41.9101C92.1997 44.2501 91.2897 47.0101 89.4797 50.1201C88.1047 52.4162 86.3769 54.4815 84.3597 56.2402C81.9297 58.4402 79.8997 59.5001 78.1597 59.5001C77.8184 59.4993 77.4799 59.4383 77.1597 59.3202C75.7697 58.8702 75.0697 57.4501 75.0697 55.1201C75.0697 54.8101 75.0697 54.4101 75.0697 53.9301C73.8644 55.067 72.574 56.11 71.2097 57.0501C68.6797 58.8101 66.6997 59.6701 65.1597 59.6701C64.7096 59.676 64.2634 59.5874 63.8497 59.4101C63.394 59.206 63.0112 58.868 62.7522 58.4411C62.4932 58.0142 62.3702 57.5186 62.3997 57.0201C62.473 55.5134 63.1039 54.0877 64.1697 53.0201C65.5071 51.6115 66.9478 50.3045 68.4797 49.1101C69.9032 48.0353 71.1954 46.7968 72.3297 45.4201C73.388 44.1914 74.0134 42.649 74.1097 41.0301C74.13 40.6387 74.0654 40.2475 73.9204 39.8833C73.7754 39.5191 73.5535 39.1905 73.2697 38.9201C72.5535 38.3449 71.6458 38.0626 70.7297 38.1301C68.336 38.258 66.0152 38.9983 63.9897 40.2801C62.1702 41.343 60.5687 42.741 59.2697 44.4001C58.1368 45.666 57.4364 47.2596 57.2697 48.9501C57.2589 49.3376 57.3522 49.7209 57.5397 50.0601C57.7817 50.4416 58.1278 50.7459 58.5371 50.9373C58.9463 51.1286 59.4017 51.199 59.8497 51.1401C60.921 51.1102 61.978 50.8866 62.9697 50.4801C63.8587 50.1547 64.6996 49.7107 65.4697 49.1601C67.1496 47.9537 68.392 46.234 69.0097 44.2601C69.1997 43.6001 69.6197 43.4601 69.8197 43.4501C69.9537 43.4243 70.0925 43.4412 70.2164 43.4987C70.3402 43.5561 70.4428 43.6511 70.5097 43.7701C70.5763 43.8786 70.6165 44.0011 70.6269 44.128C70.6373 44.2548 70.6177 44.3823 70.5697 44.5001C70.3597 45.3288 70.0402 46.1259 69.6197 46.8701C68.7518 48.2056 67.651 49.3742 66.3697 50.3202C65.4839 50.9643 64.5152 51.4856 63.4897 51.8701C62.3259 52.3134 61.0947 52.5535 59.8497 52.5801C59.0993 52.6447 58.3454 52.5039 57.6689 52.1727C56.9925 51.8415 56.4189 51.3325 56.0097 50.7001C55.4355 49.758 55.1375 48.6734 55.1497 47.5701C55.1768 46.0965 55.6056 44.6582 56.3897 43.4101C57.3631 41.8606 58.6467 40.5294 60.1597 39.5001C62.8319 37.5597 66.0473 36.51 69.3497 36.5001C71.5797 36.5001 73.2397 36.9701 74.2697 37.9101C74.7539 38.3446 75.1353 38.8814 75.3861 39.4816C75.6369 40.0818 75.7508 40.7304 75.7197 41.3801C75.6697 43.258 75.0255 45.0716 73.8797 46.5601C73.0139 47.7269 72.0577 48.8236 71.0197 49.8401C69.4997 51.3701 68.4997 52.4201 68.0197 53.0101C66.0197 55.3501 65.6097 56.6501 65.6097 57.3101C65.6097 57.9701 65.8297 57.9701 66.2197 57.9701C66.8597 57.9701 68.2197 57.5001 71.1697 55.2601C72.6862 54.1227 74.1291 52.8902 75.4897 51.5702C75.962 49.4117 76.6975 47.3194 77.6797 45.3401C78.1696 44.3904 78.7963 43.5178 79.5397 42.7501C80.0902 42.0871 80.8816 41.6698 81.7397 41.5901C81.8999 41.576 82.0613 41.5975 82.2123 41.653C82.3633 41.7086 82.5001 41.797 82.6129 41.9117C82.7257 42.0264 82.8117 42.1646 82.8647 42.3165C82.9178 42.4684 82.9365 42.6302 82.9197 42.7901C82.9197 43.7201 82.3197 45.1101 81.0897 47.0301C79.8868 48.8974 78.4999 50.6394 76.9497 52.2301C76.742 53.153 76.6281 54.0944 76.6097 55.0401C76.6097 57.6701 77.6797 57.9701 78.4897 57.9701C79.6997 57.9701 81.1897 57.1701 82.9297 55.5801C84.7214 53.9296 86.2224 51.9891 87.3697 49.8401C89.0206 46.8302 89.8872 43.4531 89.8897 40.0201C89.8993 39.5174 89.8591 39.015 89.7697 38.5201C89.6597 37.9601 89.6797 37.6901 89.8297 37.5201C89.8739 37.4668 89.9288 37.4233 89.9908 37.3923C90.0527 37.3613 90.1205 37.3436 90.1897 37.3401L90.1497 37.3001ZM4.05968 5.30015L5.58968 1.53014L7.13969 5.30015H4.05968ZM8.05968 8.54015C7.91769 8.60001 7.76316 8.62405 7.60969 8.61015H7.26968V9.14014H10.8297V8.61015H10.6597C10.4422 8.61813 10.228 8.55493 10.0497 8.43015C9.83643 8.22829 9.67517 7.97783 9.57969 7.70014L6.47969 0.390144H5.31969L2.19968 7.68015C2.12699 7.92792 2.00068 8.15666 1.82969 8.35014C1.76284 8.46241 1.65546 8.54474 1.52969 8.58015C1.33695 8.64624 1.13301 8.67344 0.929688 8.66015V9.19015H3.92969V8.66015H3.59969C3.45701 8.6795 3.31237 8.6795 3.16969 8.66015C3.09644 8.6336 3.03345 8.58459 2.98968 8.52014C2.93703 8.45905 2.90858 8.38079 2.90969 8.30015C2.92754 8.15667 2.9716 8.01769 3.03969 7.89014L3.78969 6.00014H7.40969L8.06969 7.68015C8.16972 7.88862 8.23717 8.11121 8.26968 8.34014C8.26972 8.40307 8.25061 8.46451 8.21488 8.51631C8.17916 8.56811 8.12852 8.60781 8.06969 8.63014L8.05968 8.54015ZM17.9997 8.10014C17.4758 8.46622 16.8486 8.65542 16.2097 8.64014C15.6976 8.63463 15.1915 8.52933 14.7197 8.33015C14.2115 8.11443 13.7523 7.79808 13.3697 7.40015C12.935 6.98732 12.594 6.48604 12.3697 5.93015L11.6997 6.04015L12.3697 9.19015H12.8697L13.1897 8.35014C13.6243 8.68399 14.1107 8.94413 14.6297 9.12015C15.1238 9.27939 15.6406 9.35707 16.1597 9.35014C17.1189 9.39014 18.0644 9.11245 18.8497 8.56014C19.1511 8.35784 19.3993 8.08592 19.5734 7.76738C19.7474 7.44884 19.8422 7.09307 19.8497 6.73015C19.8516 6.42419 19.7795 6.12229 19.6397 5.85014C19.5001 5.58263 19.3018 5.35016 19.0597 5.17014C18.7509 4.95068 18.4147 4.77251 18.0597 4.64014C17.7332 4.51037 17.3993 4.40017 17.0597 4.31014L15.1997 3.83015C14.7884 3.71224 14.3871 3.56176 13.9997 3.38014C13.7655 3.27273 13.5625 3.10756 13.4097 2.90015C13.2894 2.73411 13.2231 2.53513 13.2197 2.33015C13.2248 2.09398 13.3134 1.86726 13.4697 1.69015C13.6733 1.4535 13.9353 1.27423 14.2297 1.17014C14.5799 1.04876 14.9491 0.991187 15.3197 1.00014C15.6579 1.00039 15.9944 1.0475 16.3197 1.14014C16.6366 1.2315 16.9395 1.3661 17.2197 1.54015C17.9163 1.98586 18.4877 2.60196 18.8797 3.33015L19.5397 3.16015L18.7797 0.460144H18.2697L17.9597 1.07014C17.6615 0.840836 17.322 0.67108 16.9597 0.570144C16.4513 0.395623 15.9172 0.307732 15.3797 0.310142C14.7592 0.306443 14.1441 0.425393 13.5697 0.660148C13.092 0.825296 12.6673 1.11534 12.3397 1.50014C12.109 1.8197 11.9895 2.20614 11.9997 2.60014C11.9944 2.86 12.0423 3.11821 12.1403 3.35893C12.2383 3.59966 12.3844 3.81785 12.5697 4.00014C13.1781 4.51095 13.9085 4.85547 14.6897 5.00014L16.4697 5.45014C17.0696 5.567 17.6427 5.79419 18.1597 6.12015C18.3125 6.23631 18.4344 6.38828 18.5146 6.56267C18.5949 6.73706 18.6309 6.92852 18.6197 7.12015C18.5985 7.32013 18.5315 7.51254 18.424 7.68249C18.3165 7.85243 18.1713 7.99534 17.9997 8.10014ZM96.4497 0.440147V1.00014H97.2197L97.3997 1.10014C97.4138 1.14914 97.4138 1.20115 97.3997 1.25014V1.38014L97.2297 1.63014L95.0797 4.91015L93.1497 1.75014L93.0497 1.61015C92.9739 1.50358 92.9258 1.37988 92.9097 1.25014C92.8954 1.20436 92.8964 1.15515 92.9127 1.11002C92.9289 1.06489 92.9595 1.02631 92.9997 1.00014C93.1654 0.975501 93.3339 0.975501 93.4997 1.00014H93.9097V0.460144H90.1797V1.00014H90.6797L90.9697 1.10014C91.1927 1.24669 91.3723 1.45046 91.4897 1.69015L94.1297 5.78014V7.78014C94.1443 7.97551 94.124 8.17191 94.0697 8.36015C94.0091 8.46446 93.9185 8.5481 93.8097 8.60014C93.607 8.66811 93.3929 8.6953 93.1797 8.68015H92.8697V9.21014H96.7697V8.68015C96.4684 8.69414 96.1665 8.67402 95.8697 8.62015C95.7511 8.58638 95.6505 8.50737 95.5897 8.40015C95.5073 8.20443 95.473 7.99183 95.4897 7.78014V5.55015L98.1997 1.61015C98.2914 1.44232 98.4096 1.29037 98.5497 1.16015C98.6498 1.09972 98.7574 1.05265 98.8697 1.02014C99.0392 1.00148 99.2102 1.00148 99.3797 1.02014H99.4697V0.480148L96.4497 0.440147ZM82.9997 1.12015H85.5697C86.0136 1.10186 86.4572 1.16282 86.8797 1.30015C87.1515 1.41447 87.3867 1.60126 87.5597 1.84014C87.7334 2.13515 87.8156 2.47506 87.7961 2.81684C87.7765 3.15862 87.6559 3.48691 87.4497 3.76015C87.1979 4.03268 86.8706 4.22413 86.5097 4.31014C86.0283 4.39856 85.5389 4.43544 85.0497 4.42014H82.9997V1.12015ZM84.2297 8.66015H83.9697C83.736 8.67719 83.5012 8.64657 83.2797 8.57014C83.221 8.5406 83.1687 8.49978 83.1258 8.45002C83.0829 8.40026 83.0503 8.34254 83.0297 8.28014C83.0116 8.09057 83.0116 7.89971 83.0297 7.71014V5.00014H84.2997L87.9597 9.18015H90.2197V8.65015H89.9997C89.7922 8.65107 89.586 8.61727 89.3897 8.55015C89.2026 8.47377 89.0249 8.37648 88.8597 8.26015L88.4397 7.83015L85.7697 5.00014C86.1383 5.00208 86.5063 4.97197 86.8697 4.91015C87.1719 4.873 87.4679 4.79565 87.7497 4.68015C88.1926 4.51241 88.5803 4.22509 88.8697 3.85014C89.134 3.50643 89.2749 3.08372 89.2697 2.65015C89.2783 2.21911 89.1369 1.79847 88.8697 1.46014C88.5684 1.09359 88.1645 0.825447 87.7097 0.690147C86.9884 0.485132 86.2388 0.397345 85.4897 0.430145H80.3397V1.00014H80.7597C80.9378 0.986259 81.1166 1.0172 81.2797 1.09014C81.3824 1.13795 81.4692 1.21432 81.5297 1.31014C81.5983 1.48155 81.629 1.66576 81.6197 1.85014V7.60014V8.22015C81.6017 8.32028 81.5567 8.41362 81.4897 8.49014C81.4208 8.57019 81.3306 8.62913 81.2297 8.66015C81.0605 8.68357 80.8889 8.68357 80.7197 8.66015H80.3697V9.19015H84.2097V8.66015H84.2297ZM23.7897 1.12015H25.0497C25.4897 1.12015 25.823 1.12015 26.0497 1.12015C26.255 1.1281 26.4592 1.15488 26.6597 1.20014C27.0469 1.29224 27.3962 1.50182 27.6597 1.80015C27.9011 2.11862 28.0247 2.51083 28.0097 2.91015C28.0113 3.26589 27.9068 3.61403 27.7097 3.91015C27.5149 4.19409 27.2398 4.41344 26.9197 4.54015C26.392 4.69982 25.84 4.76416 25.2897 4.73015H23.7897V1.12015ZM25.0497 8.66015H24.6997C24.4978 8.67059 24.2955 8.65035 24.0997 8.60014C23.9889 8.54805 23.9028 8.45476 23.8597 8.34014C23.7956 8.13669 23.7718 7.9227 23.7897 7.71014V5.46014H25.6197C26.3869 5.49902 27.155 5.40428 27.8897 5.18015C28.3894 4.97097 28.8194 4.62419 29.1297 4.18015C29.4116 3.80184 29.5626 3.34195 29.5597 2.87015C29.5617 2.34257 29.3613 1.8343 28.9997 1.45014C28.6104 1.0591 28.1236 0.779416 27.5897 0.640144C26.7784 0.467158 25.9482 0.399935 25.1197 0.440147H21.1897V1.00014H21.4197C21.6534 0.983102 21.8882 1.01372 22.1097 1.09014C22.2152 1.12305 22.3044 1.19445 22.3597 1.29015C22.4146 1.46805 22.4383 1.65414 22.4297 1.84014V7.84014C22.4372 8.03267 22.4135 8.22515 22.3597 8.41015C22.3342 8.4648 22.2966 8.51297 22.2499 8.55107C22.2031 8.58917 22.1484 8.6162 22.0897 8.63014C21.8738 8.70078 21.6461 8.72798 21.4197 8.71014H21.1897V9.24014H25.0497V8.71014V8.66015ZM62.2797 8.66015H61.8597C61.76 8.67138 61.6594 8.67138 61.5597 8.66015C61.3492 8.5924 61.1735 8.44533 61.0697 8.25014C61.0516 8.03719 61.0516 7.8231 61.0697 7.61015V1.30015L66.5297 9.19015H67.3897V2.00014C67.3813 1.78148 67.4188 1.56348 67.4997 1.36015C67.5687 1.21564 67.6852 1.09916 67.8297 1.03014C68.0291 1.00785 68.2303 1.00785 68.4297 1.03014H68.6197V0.490143H65.2797V1.00014H65.5297C65.7337 0.990061 65.9376 1.02065 66.1297 1.09014C66.2575 1.15774 66.3621 1.26228 66.4297 1.39014C66.5087 1.59029 66.5429 1.80535 66.5297 2.02014V7.02014L61.9997 0.440147H58.8997V1.00014H59.1697C59.41 0.981767 59.6515 1.01238 59.8797 1.09014C59.9437 1.11709 60.0001 1.15953 60.0438 1.21363C60.0874 1.26773 60.1169 1.33182 60.1297 1.40015C60.1469 1.50612 60.1469 1.61417 60.1297 1.72015V7.58015C60.1448 7.82442 60.1108 8.06925 60.0297 8.30015C59.9689 8.42365 59.871 8.52504 59.7497 8.59014C59.5276 8.664 59.2933 8.69455 59.0597 8.68015H58.8697V9.21014H62.2497V8.68015L62.2797 8.66015ZM79.3297 6.45014L78.6697 6.25014C78.4663 6.6919 78.1965 7.09995 77.8697 7.46014C77.5278 7.82154 77.1068 8.09879 76.6397 8.27014C75.9915 8.4638 75.3156 8.54829 74.6397 8.52014H73.1397C72.947 8.54339 72.7523 8.54339 72.5597 8.52014C72.5265 8.5082 72.4961 8.48964 72.4703 8.46557C72.4445 8.4415 72.4239 8.41243 72.4097 8.38014C72.3824 8.20118 72.3824 8.01911 72.4097 7.84014V5.00014H74.0897C74.1906 5.01094 74.2907 5.02764 74.3897 5.05015C74.5492 5.10654 74.7005 5.18388 74.8397 5.28014C74.9466 5.3962 75.0405 5.52363 75.1197 5.66015C75.1685 5.8664 75.1887 6.07839 75.1797 6.29015V6.62015H75.8697V2.74014H75.1797V2.88014C75.1933 3.14005 75.1628 3.40038 75.0897 3.65015C74.9886 3.85895 74.8241 4.03046 74.6197 4.14014C74.3102 4.29555 73.9656 4.36791 73.6197 4.35014H72.4197V1.14014H74.8297C75.3108 1.12658 75.7922 1.14998 76.2697 1.21014C76.5467 1.2696 76.813 1.37076 77.0597 1.51015C77.3002 1.66332 77.5188 1.84832 77.7097 2.06014C77.9327 2.32667 78.1116 2.62712 78.2397 2.95014L78.8697 2.74014L77.9297 0.440147H69.7997V1.00014C70.0844 0.979599 70.3706 0.9998 70.6497 1.06014C70.7792 1.09336 70.8947 1.1669 70.9797 1.27014C71.0437 1.4426 71.0709 1.62653 71.0597 1.81014V7.81014C71.0693 8.00349 71.0422 8.19691 70.9797 8.38014C70.9199 8.48877 70.8246 8.57352 70.7097 8.62015C70.5011 8.65465 70.2883 8.65465 70.0797 8.62015H69.7997V9.15015H78.2197L79.3297 6.41015V6.45014ZM40.5997 1.80015L43.2997 9.19015H44.2997L46.2597 4.00014L48.1797 9.23015H49.1797L51.9997 1.80015C52.0583 1.60301 52.1496 1.4171 52.2697 1.25014C52.3519 1.16461 52.4505 1.09659 52.5597 1.05015C52.7267 0.992776 52.9034 0.968987 53.0797 0.980148V0.440147H50.0797V1.00014H50.4397C50.6299 0.987563 50.8206 1.01481 50.9997 1.08015C51.043 1.11062 51.0783 1.15106 51.1026 1.19805C51.127 1.24504 51.1397 1.29721 51.1397 1.35014C51.152 1.43302 51.152 1.51727 51.1397 1.60014C51.1397 1.69014 51.1397 1.76014 51.0697 1.81014L49.0697 7.68015L47.0097 1.81014C46.9739 1.71279 46.9471 1.61238 46.9297 1.51015C46.9211 1.45716 46.9211 1.40313 46.9297 1.35014C46.9286 1.29725 46.942 1.24506 46.9684 1.19923C46.9949 1.1534 47.0333 1.11567 47.0797 1.09014C47.2599 1.01537 47.4552 0.98452 47.6497 1.00014H47.9897V0.460144H44.4497V1.00014C44.6741 0.990821 44.8981 1.02477 45.1097 1.10014C45.3298 1.23182 45.4909 1.44305 45.5597 1.69015L45.9697 2.85014L44.1997 7.64014L42.1997 1.81014C42.142 1.66606 42.105 1.51457 42.0897 1.36015C42.0869 1.29415 42.1047 1.22893 42.1405 1.17342C42.1763 1.11792 42.2284 1.07486 42.2897 1.05015C42.4589 1.02771 42.6304 1.02771 42.7997 1.05015H42.9997V0.510147H39.4397V1.00014C39.6726 0.986719 39.9054 1.02781 40.1197 1.12015C40.3521 1.29258 40.518 1.53976 40.5897 1.82014L40.5997 1.80015ZM57.6897 8.66015H57.3997C57.1962 8.67788 56.9914 8.65057 56.7997 8.58015C56.6908 8.51125 56.5986 8.41903 56.5297 8.31014C56.4669 8.11664 56.4398 7.91334 56.4497 7.71014V2.07014C56.4366 1.83067 56.4636 1.59069 56.5297 1.36015C56.5867 1.23735 56.6813 1.13582 56.7997 1.07014C56.991 0.997874 57.1956 0.967197 57.3997 0.980148H57.6897V0.440147H53.8797V1.00014H54.1897C54.3922 0.98811 54.5953 1.0118 54.7897 1.07014C54.8998 1.12868 54.9929 1.21483 55.0597 1.32014C55.1163 1.53192 55.1399 1.75117 55.1297 1.97015V7.73015C55.1457 7.94419 55.115 8.15916 55.0397 8.36015C54.9822 8.46085 54.8948 8.54121 54.7897 8.59014C54.598 8.66125 54.3938 8.6919 54.1897 8.68015H53.8797V9.21014H57.6897V8.68015V8.66015ZM33.9897 8.66015H33.6997C33.4962 8.67788 33.2914 8.65057 33.0997 8.58015C32.9916 8.5136 32.9021 8.4207 32.8397 8.31014C32.7624 8.12014 32.7316 7.91445 32.7497 7.71014V2.07014C32.7277 1.82975 32.7584 1.58745 32.8397 1.36015C32.8864 1.23398 32.9794 1.13031 33.0997 1.07014C33.291 0.997874 33.4956 0.967197 33.6997 0.980148H33.9997V0.440147H30.1797V1.00014H30.4897C30.6922 0.98811 30.8953 1.0118 31.0897 1.07014C31.2016 1.1262 31.2952 1.2129 31.3597 1.32014C31.4216 1.5309 31.4453 1.75104 31.4297 1.97015V7.73015C31.4424 7.94329 31.4152 8.15693 31.3497 8.36015C31.2859 8.4593 31.1959 8.53889 31.0897 8.59014C30.8983 8.66241 30.6938 8.6931 30.4897 8.68015H30.1797V9.21014H33.9997L33.9897 8.66015Z" fill="url(#paint0_linear_1_153)"/>
<defs>
<linearGradient id="paint0_linear_1_153" x1="50.1997" y1="0.310059" x2="50.1997" y2="85.7453" gradientUnits="userSpaceOnUse">
<stop stop-color="#E3D7A0"/>
<stop offset="1" stop-color="#B19A4D"/>
</linearGradient>
</defs>
</svg>
